<?xml version="1.0" encoding="utf-8" standalone="no"?>
<!DOCTYPE svg PUBLIC "-//W3C//DTD SVG 1.1//EN"
  "http://www.w3.org/Graphics/SVG/1.1/DTD/svg11.dtd">
<!-- Created with matplotlib (http://matplotlib.org/) -->
<svg height="68pt" version="1.1" viewBox="0 0 455 68" width="455pt" xmlns="http://www.w3.org/2000/svg" xmlns:xlink="http://www.w3.org/1999/xlink">
 <defs>
  <style type="text/css">
*{stroke-linecap:butt;stroke-linejoin:round;}
  </style>
 </defs>
 <g id="figure_1">
  <g id="patch_1">
   <path d="M 0 68.473251 
L 455.56 68.473251 
L 455.56 0 
L 0 0 
z
" style="fill:#ffffff;"/>
  </g>
  <g id="axes_1">
   <g id="patch_2">
    <path d="M 10.7 45.259736 
L 444.86 45.259736 
L 444.86 10.7 
L 10.7 10.7 
z
" style="fill:#ffffff;"/>
   </g>
   <g id="matplotlib.axis_1">
    <g id="xtick_1">
     <g id="line2d_1">
      <defs>
       <path d="M 0 0 
L 0 3.5 
" id="m3576c69d9c" style="stroke:#000000;stroke-width:0.8;"/>
      </defs>
      <g>
       <use style="stroke:#000000;stroke-width:0.8;" x="61.677332" xlink:href="#m3576c69d9c" y="44.595126"/>
      </g>
     </g>
     <g id="text_1">
      <!-- -10 -->
      <defs>
       <path d="M 4.890625 31.390625 
L 31.203125 31.390625 
L 31.203125 23.390625 
L 4.890625 23.390625 
z
" id="DejaVuSans-2d"/>
       <path d="M 12.40625 8.296875 
L 28.515625 8.296875 
L 28.515625 63.921875 
L 10.984375 60.40625 
L 10.984375 69.390625 
L 28.421875 72.90625 
L 38.28125 72.90625 
L 38.28125 8.296875 
L 54.390625 8.296875 
L 54.390625 0 
L 12.40625 0 
z
" id="DejaVuSans-31"/>
       <path d="M 31.78125 66.40625 
Q 24.171875 66.40625 20.328125 58.90625 
Q 16.5 51.421875 16.5 36.375 
Q 16.5 21.390625 20.328125 13.890625 
Q 24.171875 6.390625 31.78125 6.390625 
Q 39.453125 6.390625 43.28125 13.890625 
Q 47.125 21.390625 47.125 36.375 
Q 47.125 51.421875 43.28125 58.90625 
Q 39.453125 66.40625 31.78125 66.40625 
z
M 31.78125 74.21875 
Q 44.046875 74.21875 50.515625 64.515625 
Q 56.984375 54.828125 56.984375 36.375 
Q 56.984375 17.96875 50.515625 8.265625 
Q 44.046875 -1.421875 31.78125 -1.421875 
Q 19.53125 -1.421875 13.0625 8.265625 
Q 6.59375 17.96875 6.59375 36.375 
Q 6.59375 54.828125 13.0625 64.515625 
Q 19.53125 74.21875 31.78125 74.21875 
z
" id="DejaVuSans-30"/>
      </defs>
      <g transform="translate(53.510925 59.193564)scale(0.1 -0.1)">
       <use xlink:href="#DejaVuSans-2d"/>
       <use x="36.083984" xlink:href="#DejaVuSans-31"/>
       <use x="99.707031" xlink:href="#DejaVuSans-30"/>
      </g>
     </g>
    </g>
    <g id="xtick_2">
     <g id="line2d_2">
      <g>
       <use style="stroke:#000000;stroke-width:0.8;" x="144.728666" xlink:href="#m3576c69d9c" y="44.595126"/>
      </g>
     </g>
     <g id="text_2">
      <!-- -5 -->
      <defs>
       <path d="M 10.796875 72.90625 
L 49.515625 72.90625 
L 49.515625 64.59375 
L 19.828125 64.59375 
L 19.828125 46.734375 
Q 21.96875 47.46875 24.109375 47.828125 
Q 26.265625 48.1875 28.421875 48.1875 
Q 40.625 48.1875 47.75 41.5 
Q 54.890625 34.8125 54.890625 23.390625 
Q 54.890625 11.625 47.5625 5.09375 
Q 40.234375 -1.421875 26.90625 -1.421875 
Q 22.3125 -1.421875 17.546875 -0.640625 
Q 12.796875 0.140625 7.71875 1.703125 
L 7.71875 11.625 
Q 12.109375 9.234375 16.796875 8.0625 
Q 21.484375 6.890625 26.703125 6.890625 
Q 35.15625 6.890625 40.078125 11.328125 
Q 45.015625 15.765625 45.015625 23.390625 
Q 45.015625 31 40.078125 35.4375 
Q 35.15625 39.890625 26.703125 39.890625 
Q 22.75 39.890625 18.8125 39.015625 
Q 14.890625 38.140625 10.796875 36.28125 
z
" id="DejaVuSans-35"/>
      </defs>
      <g transform="translate(139.74351 59.193564)scale(0.1 -0.1)">
       <use xlink:href="#DejaVuSans-2d"/>
       <use x="36.083984" xlink:href="#DejaVuSans-35"/>
      </g>
     </g>
    </g>
    <g id="xtick_3">
     <g id="line2d_3">
      <g>
       <use style="stroke:#000000;stroke-width:0.8;" x="227.78" xlink:href="#m3576c69d9c" y="44.595126"/>
      </g>
     </g>
    </g>
    <g id="xtick_4">
     <g id="line2d_4">
      <g>
       <use style="stroke:#000000;stroke-width:0.8;" x="310.831334" xlink:href="#m3576c69d9c" y="44.595126"/>
      </g>
     </g>
     <g id="text_3">
      <!-- 5 -->
      <g transform="translate(307.650084 59.193564)scale(0.1 -0.1)">
       <use xlink:href="#DejaVuSans-35"/>
      </g>
     </g>
    </g>
    <g id="xtick_5">
     <g id="line2d_5">
      <g>
       <use style="stroke:#000000;stroke-width:0.8;" x="393.882668" xlink:href="#m3576c69d9c" y="44.595126"/>
      </g>
     </g>
     <g id="text_4">
      <!-- 10 -->
      <g transform="translate(387.520168 59.193564)scale(0.1 -0.1)">
       <use xlink:href="#DejaVuSans-31"/>
       <use x="63.623047" xlink:href="#DejaVuSans-30"/>
      </g>
     </g>
    </g>
    <g id="xtick_6">
     <g id="line2d_6">
      <defs>
       <path d="M 0 0 
L 0 2 
" id="m2ee8f03001" style="stroke:#000000;stroke-width:0.6;"/>
      </defs>
      <g>
       <use style="stroke:#000000;stroke-width:0.6;" x="11.846531" xlink:href="#m2ee8f03001" y="44.595126"/>
      </g>
     </g>
    </g>
    <g id="xtick_7">
     <g id="line2d_7">
      <g>
       <use style="stroke:#000000;stroke-width:0.6;" x="28.456798" xlink:href="#m2ee8f03001" y="44.595126"/>
      </g>
     </g>
    </g>
    <g id="xtick_8">
     <g id="line2d_8">
      <g>
       <use style="stroke:#000000;stroke-width:0.6;" x="45.067065" xlink:href="#m2ee8f03001" y="44.595126"/>
      </g>
     </g>
    </g>
    <g id="xtick_9">
     <g id="line2d_9">
      <g>
       <use style="stroke:#000000;stroke-width:0.6;" x="78.287598" xlink:href="#m2ee8f03001" y="44.595126"/>
      </g>
     </g>
    </g>
    <g id="xtick_10">
     <g id="line2d_10">
      <g>
       <use style="stroke:#000000;stroke-width:0.6;" x="94.897865" xlink:href="#m2ee8f03001" y="44.595126"/>
      </g>
     </g>
    </g>
    <g id="xtick_11">
     <g id="line2d_11">
      <g>
       <use style="stroke:#000000;stroke-width:0.6;" x="111.508132" xlink:href="#m2ee8f03001" y="44.595126"/>
      </g>
     </g>
    </g>
    <g id="xtick_12">
     <g id="line2d_12">
      <g>
       <use style="stroke:#000000;stroke-width:0.6;" x="128.118399" xlink:href="#m2ee8f03001" y="44.595126"/>
      </g>
     </g>
    </g>
    <g id="xtick_13">
     <g id="line2d_13">
      <g>
       <use style="stroke:#000000;stroke-width:0.6;" x="161.338933" xlink:href="#m2ee8f03001" y="44.595126"/>
      </g>
     </g>
    </g>
    <g id="xtick_14">
     <g id="line2d_14">
      <g>
       <use style="stroke:#000000;stroke-width:0.6;" x="177.949199" xlink:href="#m2ee8f03001" y="44.595126"/>
      </g>
     </g>
    </g>
    <g id="xtick_15">
     <g id="line2d_15">
      <g>
       <use style="stroke:#000000;stroke-width:0.6;" x="194.559466" xlink:href="#m2ee8f03001" y="44.595126"/>
      </g>
     </g>
    </g>
    <g id="xtick_16">
     <g id="line2d_16">
      <g>
       <use style="stroke:#000000;stroke-width:0.6;" x="211.169733" xlink:href="#m2ee8f03001" y="44.595126"/>
      </g>
     </g>
    </g>
    <g id="xtick_17">
     <g id="line2d_17">
      <g>
       <use style="stroke:#000000;stroke-width:0.6;" x="244.390267" xlink:href="#m2ee8f03001" y="44.595126"/>
      </g>
     </g>
    </g>
    <g id="xtick_18">
     <g id="line2d_18">
      <g>
       <use style="stroke:#000000;stroke-width:0.6;" x="261.000534" xlink:href="#m2ee8f03001" y="44.595126"/>
      </g>
     </g>
    </g>
    <g id="xtick_19">
     <g id="line2d_19">
      <g>
       <use style="stroke:#000000;stroke-width:0.6;" x="277.610801" xlink:href="#m2ee8f03001" y="44.595126"/>
      </g>
     </g>
    </g>
    <g id="xtick_20">
     <g id="line2d_20">
      <g>
       <use style="stroke:#000000;stroke-width:0.6;" x="294.221067" xlink:href="#m2ee8f03001" y="44.595126"/>
      </g>
     </g>
    </g>
    <g id="xtick_21">
     <g id="line2d_21">
      <g>
       <use style="stroke:#000000;stroke-width:0.6;" x="327.441601" xlink:href="#m2ee8f03001" y="44.595126"/>
      </g>
     </g>
    </g>
    <g id="xtick_22">
     <g id="line2d_22">
      <g>
       <use style="stroke:#000000;stroke-width:0.6;" x="344.051868" xlink:href="#m2ee8f03001" y="44.595126"/>
      </g>
     </g>
    </g>
    <g id="xtick_23">
     <g id="line2d_23">
      <g>
       <use style="stroke:#000000;stroke-width:0.6;" x="360.662135" xlink:href="#m2ee8f03001" y="44.595126"/>
      </g>
     </g>
    </g>
    <g id="xtick_24">
     <g id="line2d_24">
      <g>
       <use style="stroke:#000000;stroke-width:0.6;" x="377.272402" xlink:href="#m2ee8f03001" y="44.595126"/>
      </g>
     </g>
    </g>
    <g id="xtick_25">
     <g id="line2d_25">
      <g>
       <use style="stroke:#000000;stroke-width:0.6;" x="410.492935" xlink:href="#m2ee8f03001" y="44.595126"/>
      </g>
     </g>
    </g>
    <g id="xtick_26">
     <g id="line2d_26">
      <g>
       <use style="stroke:#000000;stroke-width:0.6;" x="427.103202" xlink:href="#m2ee8f03001" y="44.595126"/>
      </g>
     </g>
    </g>
    <g id="xtick_27">
     <g id="line2d_27">
      <g>
       <use style="stroke:#000000;stroke-width:0.6;" x="443.713469" xlink:href="#m2ee8f03001" y="44.595126"/>
      </g>
     </g>
    </g>
   </g>
   <g id="matplotlib.axis_2">
    <g id="ytick_1">
     <g id="line2d_28">
      <defs>
       <path d="M 0 0 
L -3.5 0 
" id="m181cce7e05" style="stroke:#000000;stroke-width:0.8;"/>
      </defs>
      <g>
       <use style="stroke:#000000;stroke-width:0.8;" x="227.78" xlink:href="#m181cce7e05" y="44.595126"/>
      </g>
     </g>
    </g>
    <g id="ytick_2">
     <g id="line2d_29">
      <g>
       <use style="stroke:#000000;stroke-width:0.8;" x="227.78" xlink:href="#m181cce7e05" y="36.289993"/>
      </g>
     </g>
     <g id="text_5">
      <!-- 0.5 -->
      <defs>
       <path d="M 10.6875 12.40625 
L 21 12.40625 
L 21 0 
L 10.6875 0 
z
" id="DejaVuSans-2e"/>
      </defs>
      <g transform="translate(204.876875 40.089211)scale(0.1 -0.1)">
       <use xlink:href="#DejaVuSans-30"/>
       <use x="63.623047" xlink:href="#DejaVuSans-2e"/>
       <use x="95.410156" xlink:href="#DejaVuSans-35"/>
      </g>
     </g>
    </g>
    <g id="ytick_3">
     <g id="line2d_30">
      <g>
       <use style="stroke:#000000;stroke-width:0.8;" x="227.78" xlink:href="#m181cce7e05" y="27.984859"/>
      </g>
     </g>
     <g id="text_6">
      <!-- 1 -->
      <g transform="translate(214.4175 31.784078)scale(0.1 -0.1)">
       <use xlink:href="#DejaVuSans-31"/>
      </g>
     </g>
    </g>
    <g id="ytick_4">
     <g id="line2d_31">
      <g>
       <use style="stroke:#000000;stroke-width:0.8;" x="227.78" xlink:href="#m181cce7e05" y="19.679726"/>
      </g>
     </g>
     <g id="text_7">
      <!-- 1.5 -->
      <g transform="translate(204.876875 23.478945)scale(0.1 -0.1)">
       <use xlink:href="#DejaVuSans-31"/>
       <use x="63.623047" xlink:href="#DejaVuSans-2e"/>
       <use x="95.410156" xlink:href="#DejaVuSans-35"/>
      </g>
     </g>
    </g>
    <g id="ytick_5">
     <g id="line2d_32">
      <g>
       <use style="stroke:#000000;stroke-width:0.8;" x="227.78" xlink:href="#m181cce7e05" y="11.374592"/>
      </g>
     </g>
     <g id="text_8">
      <!-- 2 -->
      <defs>
       <path d="M 19.1875 8.296875 
L 53.609375 8.296875 
L 53.609375 0 
L 7.328125 0 
L 7.328125 8.296875 
Q 12.9375 14.109375 22.625 23.890625 
Q 32.328125 33.6875 34.8125 36.53125 
Q 39.546875 41.84375 41.421875 45.53125 
Q 43.3125 49.21875 43.3125 52.78125 
Q 43.3125 58.59375 39.234375 62.25 
Q 35.15625 65.921875 28.609375 65.921875 
Q 23.96875 65.921875 18.8125 64.3125 
Q 13.671875 62.703125 7.8125 59.421875 
L 7.8125 69.390625 
Q 13.765625 71.78125 18.9375 73 
Q 24.125 74.21875 28.421875 74.21875 
Q 39.75 74.21875 46.484375 68.546875 
Q 53.21875 62.890625 53.21875 53.421875 
Q 53.21875 48.921875 51.53125 44.890625 
Q 49.859375 40.875 45.40625 35.40625 
Q 44.1875 33.984375 37.640625 27.21875 
Q 31.109375 20.453125 19.1875 8.296875 
z
" id="DejaVuSans-32"/>
      </defs>
      <g transform="translate(214.4175 15.173811)scale(0.1 -0.1)">
       <use xlink:href="#DejaVuSans-32"/>
      </g>
     </g>
    </g>
    <g id="ytick_6">
     <g id="line2d_33">
      <defs>
       <path d="M 0 0 
L -2 0 
" id="ma70dd05dc1" style="stroke:#000000;stroke-width:0.6;"/>
      </defs>
      <g>
       <use style="stroke:#000000;stroke-width:0.6;" x="227.78" xlink:href="#ma70dd05dc1" y="42.934099"/>
      </g>
     </g>
    </g>
    <g id="ytick_7">
     <g id="line2d_34">
      <g>
       <use style="stroke:#000000;stroke-width:0.6;" x="227.78" xlink:href="#ma70dd05dc1" y="41.273073"/>
      </g>
     </g>
    </g>
    <g id="ytick_8">
     <g id="line2d_35">
      <g>
       <use style="stroke:#000000;stroke-width:0.6;" x="227.78" xlink:href="#ma70dd05dc1" y="39.612046"/>
      </g>
     </g>
    </g>
    <g id="ytick_9">
     <g id="line2d_36">
      <g>
       <use style="stroke:#000000;stroke-width:0.6;" x="227.78" xlink:href="#ma70dd05dc1" y="37.951019"/>
      </g>
     </g>
    </g>
    <g id="ytick_10">
     <g id="line2d_37">
      <g>
       <use style="stroke:#000000;stroke-width:0.6;" x="227.78" xlink:href="#ma70dd05dc1" y="36.289993"/>
      </g>
     </g>
    </g>
    <g id="ytick_11">
     <g id="line2d_38">
      <g>
       <use style="stroke:#000000;stroke-width:0.6;" x="227.78" xlink:href="#ma70dd05dc1" y="34.628966"/>
      </g>
     </g>
    </g>
    <g id="ytick_12">
     <g id="line2d_39">
      <g>
       <use style="stroke:#000000;stroke-width:0.6;" x="227.78" xlink:href="#ma70dd05dc1" y="32.967939"/>
      </g>
     </g>
    </g>
    <g id="ytick_13">
     <g id="line2d_40">
      <g>
       <use style="stroke:#000000;stroke-width:0.6;" x="227.78" xlink:href="#ma70dd05dc1" y="31.306913"/>
      </g>
     </g>
    </g>
    <g id="ytick_14">
     <g id="line2d_41">
      <g>
       <use style="stroke:#000000;stroke-width:0.6;" x="227.78" xlink:href="#ma70dd05dc1" y="29.645886"/>
      </g>
     </g>
    </g>
    <g id="ytick_15">
     <g id="line2d_42">
      <g>
       <use style="stroke:#000000;stroke-width:0.6;" x="227.78" xlink:href="#ma70dd05dc1" y="27.984859"/>
      </g>
     </g>
    </g>
    <g id="ytick_16">
     <g id="line2d_43">
      <g>
       <use style="stroke:#000000;stroke-width:0.6;" x="227.78" xlink:href="#ma70dd05dc1" y="26.323833"/>
      </g>
     </g>
    </g>
    <g id="ytick_17">
     <g id="line2d_44">
      <g>
       <use style="stroke:#000000;stroke-width:0.6;" x="227.78" xlink:href="#ma70dd05dc1" y="24.662806"/>
      </g>
     </g>
    </g>
    <g id="ytick_18">
     <g id="line2d_45">
      <g>
       <use style="stroke:#000000;stroke-width:0.6;" x="227.78" xlink:href="#ma70dd05dc1" y="23.001779"/>
      </g>
     </g>
    </g>
    <g id="ytick_19">
     <g id="line2d_46">
      <g>
       <use style="stroke:#000000;stroke-width:0.6;" x="227.78" xlink:href="#ma70dd05dc1" y="21.340753"/>
      </g>
     </g>
    </g>
    <g id="ytick_20">
     <g id="line2d_47">
      <g>
       <use style="stroke:#000000;stroke-width:0.6;" x="227.78" xlink:href="#ma70dd05dc1" y="19.679726"/>
      </g>
     </g>
    </g>
    <g id="ytick_21">
     <g id="line2d_48">
      <g>
       <use style="stroke:#000000;stroke-width:0.6;" x="227.78" xlink:href="#ma70dd05dc1" y="18.018699"/>
      </g>
     </g>
    </g>
    <g id="ytick_22">
     <g id="line2d_49">
      <g>
       <use style="stroke:#000000;stroke-width:0.6;" x="227.78" xlink:href="#ma70dd05dc1" y="16.357672"/>
      </g>
     </g>
    </g>
    <g id="ytick_23">
     <g id="line2d_50">
      <g>
       <use style="stroke:#000000;stroke-width:0.6;" x="227.78" xlink:href="#ma70dd05dc1" y="14.696646"/>
      </g>
     </g>
    </g>
    <g id="ytick_24">
     <g id="line2d_51">
      <g>
       <use style="stroke:#000000;stroke-width:0.6;" x="227.78" xlink:href="#ma70dd05dc1" y="13.035619"/>
      </g>
     </g>
    </g>
    <g id="ytick_25">
     <g id="line2d_52">
      <g>
       <use style="stroke:#000000;stroke-width:0.6;" x="227.78" xlink:href="#ma70dd05dc1" y="11.374592"/>
      </g>
     </g>
    </g>
   </g>
   <g id="line2d_53">
    <path clip-path="url(#pd66b7624ce)" d="M 19.049231 43.088332 
L 19.273608 42.926602 
L 19.497985 42.469797 
L 20.844247 38.449102 
L 21.647911 37.140359 
L 22.853406 34.897452 
L 26.105767 30.647378 
L 26.716833 29.874357 
L 28.868461 27.622406 
L 30.894926 25.756012 
L 34.586784 22.850462 
L 35.720678 22.020833 
L 39.75092 19.492985 
L 44.104093 17.255395 
L 47.431472 15.842817 
L 49.656192 15.010402 
L 54.684938 13.473089 
L 57.791806 12.760912 
L 61.404244 12.11239 
L 64.865618 11.670433 
L 68.777711 11.414824 
L 73.347835 11.398281 
L 77.642681 11.67499 
L 81.228491 12.132969 
L 86.096357 13.055639 
L 90.086997 14.115253 
L 94.299275 15.543681 
L 98.887855 17.502819 
L 103.397178 19.905743 
L 104.770386 20.722042 
L 109.344227 23.916138 
L 113.496364 27.521188 
L 117.419934 31.853697 
L 120.050397 35.647951 
L 121.37942 38.041786 
L 121.918268 39.098813 
L 122.538048 41.084445 
L 123.157828 42.877489 
L 123.364421 43.080122 
L 123.599781 42.97766 
L 123.835141 42.541211 
L 124.30586 41.031819 
L 125.01194 38.856166 
L 125.2473 38.380164 
L 126.279185 36.641999 
L 127.311071 34.763321 
L 128.685799 32.857411 
L 129.372603 31.897519 
L 133.669764 27.202257 
L 137.637489 23.79477 
L 141.706639 20.943625 
L 146.196847 18.364481 
L 150.714129 16.273363 
L 154.527909 14.823982 
L 159.532067 13.364703 
L 162.881079 12.596186 
L 167.111358 11.90929 
L 171.45562 11.49402 
L 175.659032 11.364794 
L 179.615287 11.487877 
L 184.806275 12.024079 
L 187.867122 12.51618 
L 192.376275 13.529473 
L 197.111919 14.986753 
L 200.099241 16.130517 
L 203.141048 17.446841 
L 207.977945 20.043469 
L 210.281239 21.49442 
L 212.208582 22.824315 
L 213.460905 23.721187 
L 217.879264 27.538851 
L 221.776345 31.843087 
L 222.79378 33.295654 
L 223.938113 34.841756 
L 226.312751 39.173528 
L 226.708524 40.39208 
L 227.50397 42.845449 
L 227.770418 43.088033 
L 228.036867 42.877361 
L 228.170091 42.614085 
L 229.512964 38.568156 
L 231.729199 34.689731 
L 232.737524 33.338946 
L 233.83084 31.787948 
L 238.368076 26.915958 
L 241.926425 23.854898 
L 246.455741 20.703345 
L 251.257136 18.037501 
L 255.099304 16.265905 
L 258.772314 14.866016 
L 262.423281 13.751412 
L 267.144794 12.617348 
L 270.469143 12.068066 
L 275.971798 11.486723 
L 280.463104 11.37574 
L 284.372682 11.512724 
L 287.477329 11.810918 
L 291.35223 12.369391 
L 294.366619 12.955801 
L 297.083731 13.623617 
L 301.306189 14.921777 
L 305.535229 16.560292 
L 309.478389 18.423295 
L 314.281433 21.239785 
L 317.338471 23.375904 
L 319.577715 25.147226 
L 321.020759 26.448018 
L 322.955312 28.308142 
L 324.913678 30.425216 
L 326.472434 32.264858 
L 329.059777 36.199225 
L 329.922225 37.752075 
L 330.599648 38.976946 
L 330.93836 39.936441 
L 331.785139 42.681181 
L 332.123851 43.08682 
L 332.293207 43.017536 
L 332.462562 42.769963 
L 332.805655 41.838133 
L 333.848076 38.628959 
L 335.890691 34.987001 
L 338.899902 31.010687 
L 340.583106 29.060346 
L 344.036051 25.714021 
L 347.63264 22.889061 
L 349.54631 21.56013 
L 351.33832 20.409395 
L 354.785685 18.437232 
L 358.799771 16.540012 
L 362.586244 15.075035 
L 364.994019 14.266788 
L 367.748727 13.48065 
L 371.845576 12.551855 
L 375.076727 12.030959 
L 380.408175 11.483989 
L 385.461408 11.394103 
L 387.899229 11.4742 
L 392.85287 11.914576 
L 397.66905 12.737778 
L 401.392256 13.60707 
L 403.413208 14.184771 
L 408.223762 15.883928 
L 412.28674 17.660175 
L 414.544687 18.817857 
L 418.320386 21.011927 
L 422.031892 23.603856 
L 426.208075 27.160133 
L 428.406522 29.386237 
L 430.656992 32.026088 
L 432.964955 35.315718 
L 435.31716 39.980041 
L 436.169738 42.721991 
L 436.510769 43.088332 
L 436.510769 43.088332 
" style="fill:none;stroke:#0000ff;stroke-linecap:square;"/>
   </g>
   <g id="line2d_54">
    <path clip-path="url(#pd66b7624ce)" d="M 227.78 44.595126 
L 227.877129 43.709826 
L 228.288416 41.955437 
L 228.908878 40.155245 
L 229.942245 37.85577 
L 231.159878 35.663901 
L 232.928801 33.017536 
L 234.967694 30.453542 
L 237.229859 28.016109 
L 239.622592 25.777253 
L 242.168665 23.691142 
L 244.958124 21.688766 
L 247.795512 19.905786 
L 250.270999 18.531059 
L 253.689456 16.876665 
L 255.993529 15.90617 
L 260.048475 14.454826 
L 263.562879 13.441651 
L 267.593386 12.539639 
L 270.934473 11.991811 
L 274.216262 11.623717 
L 278.357095 11.393996 
L 282.052109 11.407457 
L 286.243276 11.67233 
L 289.687822 12.091502 
L 293.488836 12.771049 
L 297.095416 13.635054 
L 301.197959 14.893249 
L 304.645109 16.194811 
L 308.378488 17.882066 
L 311.97138 19.81296 
L 315.534459 22.07452 
L 318.213771 24.045986 
L 320.691883 26.121246 
L 323.062344 28.387745 
L 325.120748 30.644051 
L 327.115903 33.181566 
L 328.564198 35.336037 
L 329.971328 37.832384 
L 331.030419 40.190747 
L 331.716516 42.234304 
L 332.101698 44.07426 
L 332.145385 44.595126 
L 332.145385 44.595126 
" style="fill:none;stroke:#ff0000;stroke-linecap:square;"/>
   </g>
   <g id="patch_3">
    <path d="M 227.78 45.259736 
L 227.78 10.7 
" style="fill:none;stroke:#000000;stroke-linecap:square;stroke-linejoin:miter;stroke-width:0.8;"/>
   </g>
   <g id="patch_4">
    <path d="M 10.7 44.595126 
L 444.86 44.595126 
" style="fill:none;stroke:#000000;stroke-linecap:square;stroke-linejoin:miter;stroke-width:0.8;"/>
   </g>
  </g>
 </g>
 <defs>
  <clipPath id="pd66b7624ce">
   <rect height="34.559736" width="434.16" x="10.7" y="10.7"/>
  </clipPath>
 </defs>
</svg>
